<svg xmlns="http://www.w3.org/2000/svg" height="800" width="1200" viewBox="-30 -12.55 260 75.3"><path d="M74.34 49.39V.4c-1.63-.27-3.22-.4-4.8-.4-1.54 0-3.13.13-4.75.4v43.97c0 6.78 7.48 5.56 9.55 5.02m68.94-10.21c-.67 2.18-1.71 4.07-3.1 5.7-1.4 1.61-3.14 2.88-5.26 3.79-2.11.91-4.59 1.37-7.41 1.37-2.83 0-5.3-.46-7.39-1.37-2.08-.91-3.82-2.17-5.18-3.79-1.38-1.62-2.4-3.51-3.11-5.7-.69-2.17-1.04-4.52-1.04-7.04 0-2.53.35-4.89 1.04-7.12.7-2.21 1.73-4.13 3.11-5.75 1.36-1.62 3.1-2.89 5.18-3.83 2.09-.93 4.55-1.39 7.39-1.39 2.83 0 5.3.47 7.41 1.39 2.12.93 3.86 2.21 5.26 3.83 1.39 1.62 2.43 3.54 3.1 5.75.67 2.23 1.01 4.59 1.01 7.12 0 2.52-.34 4.87-1.01 7.04m-9.26-11.72c0-3.54-2.9-6.39-6.48-6.39-3.58 0-6.49 2.86-6.49 6.39v9.15c0 3.53 2.91 6.39 6.49 6.39s6.48-2.86 6.48-6.39zM60.06 30.5c0-2.32-.34-4.49-1.01-6.53-.68-2.03-1.68-3.78-3.03-5.26-1.33-1.47-2.95-2.63-4.85-3.48-1.9-.85-4.07-1.27-6.52-1.27-2.81 0-5.26.48-7.36 1.44-2.11.96-3.87 2.27-5.29 3.91-1.43 1.66-2.51 3.61-3.23 5.83-.73 2.24-1.08 4.61-1.08 7.18 0 2.58.35 4.96 1.06 7.16.7 2.19 1.78 4.07 3.26 5.67 1.46 1.57 3.37 2.82 5.7 3.71 2.33.9 5.12 1.34 8.38 1.34 4.44 0 8.42-.67 11.95-2.01-.04-1.43-.25-2.77-.61-4.02-.36-1.26-.79-2.32-1.29-3.22-1.45.53-2.98.95-4.58 1.24-1.61.29-3.18.43-4.72.43-2.81 0-5.07-.61-6.79-1.81-1.72-1.2-2.67-3.14-2.85-5.82h22.53c.1-.49.17-1.15.24-1.98.06-.82.09-1.66.09-2.51m-9.1-2.15H37.25c.23-2.27.93-4.04 2.11-5.29 1.18-1.25 2.89-1.88 5.15-1.88 2 0 3.55.67 4.66 1.97 1.1 1.34 1.7 3.07 1.79 5.2M200 49.38V27.35c0-4.6-.94-7.98-2.81-10.15-1.88-2.16-4.81-3.25-8.79-3.25-2.54 0-4.63.61-6.28 1.85-1.65 1.22-2.93 2.66-3.84 4.32-1.53-4.12-5.05-6.17-10.52-6.17-1.27 0-2.41.17-3.43.51-1.02.33-1.94.76-2.75 1.3s-1.51 1.14-2.1 1.81c-.59.67-1.07 1.34-1.43 2.01-.05-.31-.1-.69-.17-1.14-.06-.44-.15-.9-.24-1.38-.09-.46-.19-.92-.3-1.34-.11-.42-.23-.75-.37-.97-.64-.13-1.24-.23-1.83-.29-.59-.07-1.27-.11-2.04-.11s-1.47.04-2.1.11c-.64.06-1.27.16-1.91.29v34.62c1.63.27 3.24.4 4.82.4 1.59 0 3.2-.13 4.83-.4V31.24c0-1.88.17-3.4.54-4.55.36-1.16.84-2.06 1.46-2.71.61-.64 1.29-1.08 2.06-1.3.77-.23 1.54-.34 2.31-.34 1.86 0 3.08.64 3.7 1.93.62 1.3.91 3.15.91 5.56v19.55c1.63.27 3.24.4 4.82.4 1.59 0 3.19-.13 4.82-.4V30.7c0-1.74.19-3.15.58-4.25.39-1.1.89-1.94 1.5-2.54.61-.61 1.29-1.01 2.03-1.23.75-.23 1.5-.34 2.27-.34 1.85 0 3.09.64 3.7 1.93.61 1.3.92 3.15.92 5.56v19.55c1.62.27 3.23.4 4.82.4 1.59.01 3.19-.13 4.82-.4m-99.17-18.61l8.96-16.01c-1.63-.26-3.31-.4-5.02-.4-1.81 0-3.6.14-5.37.4l-8.69 16.48 10.18 18.15c1.77.27 3.43.4 5.02.4 1.72 0 3.51-.13 5.37-.4zM84.67 49.79c1.63 0 3.23-.13 4.82-.4V.43C87.9.16 86.3.02 84.67.02c-1.63 0-3.22.13-4.75.41v48.95c1.54.27 3.12.41 4.75.41M22.54 9.54v39.84c-.81.09-1.63.17-2.44.24-.81.07-1.61.1-2.38.1-.77 0-1.59-.02-2.47-.07-.88-.04-1.77-.14-2.69-.27V9.54H.41C.14 8.2 0 6.8 0 5.33c0-1.39.14-2.75.41-4.1h34.28c.27 1.35.41 2.71.41 4.1 0 1.47-.14 2.87-.41 4.21z" fill="#0083c2"/></svg>